<svg width="26" height="26" viewBox="0 0 26 26" fill="none" xmlns="http://www.w3.org/2000/svg">
<circle cx="13" cy="13" r="13" fill="url(#paint0_linear_1_12572)"/>
<path d="M13.0688 6C15.1822 6 18 7 17.2955 8.33333C16.3327 10.1557 14.4777 8.33333 13.0688 8.33333C11.6598 8.33333 10.9554 9 10.9554 9.66667C10.9554 10.3333 11.3076 11 13.0688 11.6667C14.8299 12.3333 18 13.3333 18 16C18 18.6667 15.5344 20 12.3643 20C9.52452 20 7.43307 18.6667 8.13753 17.3333C8.94766 15.8 10.9554 17.6667 12.3643 17.6667C13.7732 17.6667 15.1822 17.3333 15.1822 16C15.1822 14.6667 13.0687 14.3333 11.6598 13.6667C9.89863 12.8333 8.1375 12 8.1375 9.66667C8.1375 7.33333 10.9554 6 13.0688 6Z" fill="white"/>
<defs>
<linearGradient id="paint0_linear_1_12572" x1="2.88889" y1="5.05556" x2="22.3889" y2="21.3056" gradientUnits="userSpaceOnUse">
<stop stop-color="#297AC0"/>
<stop offset="1" stop-color="#48B0F9"/>
</linearGradient>
</defs>
</svg>
